<?xml version="1.0" standalone="no"?>
<!DOCTYPE svg PUBLIC "-//W3C//DTD SVG 20010904//EN"
 "http://www.w3.org/TR/2001/REC-SVG-20010904/DTD/svg10.dtd">
<svg version="1.0" xmlns="http://www.w3.org/2000/svg"
 width="600.000000pt" height="600.000000pt" viewBox="0 0 600.000000 600.000000"
 preserveAspectRatio="xMidYMid meet">

<g transform="translate(0.000000,600.000000) scale(0.100000,-0.100000)"
fill="#000000" stroke="none">
<path d="M2744 5759 c-404 -22 -820 -139 -1169 -330 -631 -346 -1102 -910
-1328 -1589 -164 -493 -184 -1059 -56 -1560 259 -1008 1046 -1789 2049 -2034
367 -89 915 -109 1304 -46 397 63 760 204 1097 426 525 345 922 862 1122 1464
108 324 153 673 135 1035 -47 949 -606 1836 -1445 2294 -502 274 -1023 378
-1709 340z m1751 -904 c96 -15 191 -40 208 -55 6 -6 -767 -3668 -777 -3677 -2
-2 -124 -2 -273 -1 l-270 3 189 885 c103 487 188 891 188 898 0 28 -269 132
-475 183 -128 32 -340 69 -391 69 -30 0 -32 -4 -102 -152 -402 -860 -642
-1766 -594 -2246 6 -64 18 -138 26 -165 l14 -47 -36 0 c-133 0 -291 51 -373
119 -120 99 -172 279 -150 515 41 454 318 1206 680 1845 44 78 81 146 81 150
0 11 -192 -7 -299 -29 -207 -42 -334 -105 -395 -194 -36 -54 -34 -77 10 -101
45 -24 57 -47 57 -111 0 -77 -28 -123 -94 -157 -108 -55 -237 -45 -335 25 -61
44 -79 91 -79 208 0 84 4 102 29 153 76 157 261 282 520 352 170 46 267 57
498 59 l218 2 118 175 c341 505 676 864 1012 1085 288 189 521 250 795 209z"/>
<path d="M4014 4606 c-203 -64 -507 -371 -776 -786 -132 -203 -286 -476 -274
-487 3 -3 57 -16 119 -29 218 -44 466 -121 624 -195 57 -26 85 -34 88 -26 2 7
74 345 160 752 86 407 159 750 162 763 5 20 1 22 -28 21 -19 0 -53 -6 -75 -13z"/>
</g>
</svg>
