<?xml version="1.0" standalone="no"?>
<!DOCTYPE svg PUBLIC "-//W3C//DTD SVG 20010904//EN"
 "http://www.w3.org/TR/2001/REC-SVG-20010904/DTD/svg10.dtd">
<svg version="1.0" xmlns="http://www.w3.org/2000/svg"
 width="600.000000pt" height="600.000000pt" viewBox="0 0 600.000000 600.000000"
 preserveAspectRatio="xMidYMid meet">

<g transform="translate(0.000000,600.000000) scale(0.100000,-0.100000)"
fill="#000000" stroke="none">
<path d="M2655 5854 c-705 -71 -1333 -368 -1817 -860 -436 -444 -703 -982
-804 -1624 -26 -163 -27 -634 -1 -800 102 -663 383 -1219 844 -1671 446 -438
981 -703 1623 -806 97 -15 175 -18 495 -18 400 0 449 4 685 51 246 49 464 124
702 241 296 145 519 302 752 531 459 452 738 1002 842 1662 26 163 27 634 1
800 -99 646 -362 1180 -801 1628 -446 455 -994 738 -1633 843 -111 19 -177 22
-488 24 -198 1 -378 1 -400 -1z m855 -118 c220 -38 350 -71 520 -131 671 -236
1245 -735 1559 -1355 112 -221 167 -366 227 -598 66 -256 78 -363 78 -682 1
-298 -7 -381 -55 -605 -147 -672 -544 -1272 -1114 -1681 -338 -242 -755 -411
-1200 -486 -129 -21 -168 -23 -515 -23 -386 0 -439 4 -655 47 -538 107 -1070
396 -1451 789 -409 423 -656 912 -761 1507 -26 147 -28 176 -28 442 0 297 8
382 56 605 115 526 388 1018 775 1396 149 145 241 219 419 338 321 214 722
369 1117 430 189 29 177 29 573 26 281 -2 381 -6 455 -19z"/>
<path d="M4168 4855 c-453 -86 -1003 -570 -1500 -1320 l-100 -152 -157 5
c-510 15 -945 -149 -1071 -405 -29 -59 -35 -80 -38 -158 -3 -83 -1 -94 25
-145 16 -32 42 -64 62 -78 90 -59 232 -67 327 -19 60 30 81 60 96 130 14 69
-6 119 -56 144 -40 18 -45 38 -22 82 43 83 184 160 371 202 126 28 335 50 335
35 0 -2 -37 -68 -82 -147 -234 -413 -457 -932 -577 -1348 -157 -540 -145 -836
42 -1008 75 -69 179 -106 332 -119 l84 -7 -15 54 c-119 447 112 1426 568 2404
71 153 72 155 104 155 96 0 445 -76 603 -132 117 -41 261 -108 261 -122 -1 -6
-85 -409 -189 -896 l-188 -885 270 -3 c149 -1 271 -1 273 1 10 10 784 3671
777 3677 -11 10 -96 36 -163 50 -92 19 -286 21 -372 5z m-51 -257 c-4 -13 -76
-356 -162 -763 -86 -407 -158 -746 -160 -753 -3 -9 -22 -4 -66 19 -144 72
-380 147 -627 199 -73 15 -136 31 -139 34 -3 3 27 65 67 138 363 663 804 1138
1064 1147 24 1 27 -2 23 -21z"/>
</g>
</svg>
